<svg width="472" height="336" viewBox="0 0 472 336" fill="none" xmlns="http://www.w3.org/2000/svg">
<g clip-path="url(#clip0_19022_67563)">
<mask id="mask0_19022_67563" style="mask-type:alpha" maskUnits="userSpaceOnUse" x="48" y="-16" width="368" height="368">
<circle cx="232" cy="168" r="184" fill="url(#paint0_radial_19022_67563)"/>
</mask>
<g mask="url(#mask0_19022_67563)">
<g opacity="0.1">
<circle cx="1.6634" cy="1.6634" r="1.6634" transform="matrix(-1 0 0 1 403.312 16)" fill="#F8F8F8"/>
<circle opacity="0.3" cx="1.5842" cy="1.5842" r="1.5842" transform="matrix(-1 0 0 1 383.312 16)" fill="#F8F8F8"/>
<circle cx="1.505" cy="1.505" r="1.505" transform="matrix(-1 0 0 1 363.312 16)" fill="#F8F8F8"/>
<circle cx="1.3862" cy="1.3862" r="1.3862" transform="matrix(-1 0 0 1 342.812 16.5)" fill="#F8F8F8"/>
<circle cx="1.0892" cy="1.0892" r="1.0892" transform="matrix(-1 0 0 1 302.812 16.5)" fill="#F8F8F8"/>
<circle cx="0.911" cy="0.911" r="0.911" transform="matrix(-1 0 0 1 282.312 17)" fill="#F8F8F8"/>
<circle cx="0.7328" cy="0.7328" r="0.7328" transform="matrix(-1 0 0 1 262.312 17)" fill="#F8F8F8"/>
<circle cx="0.5744" cy="0.5744" r="0.5744" transform="matrix(-1 0 0 1 242.312 17)" fill="#F8F8F8"/>
<circle cx="0.5" cy="0.5" r="0.5" transform="matrix(-1 0 0 1 222.312 17)" fill="#F8F8F8"/>
<circle cx="0.5" cy="0.5" r="0.5" transform="matrix(-1 0 0 1 202.312 17)" fill="#F8F8F8"/>
<circle cx="0.5" cy="0.5" r="0.5" transform="matrix(-1 0 0 1 182.312 17)" fill="#F8F8F8"/>
<circle cx="0.5" cy="0.5" r="0.5" transform="matrix(-1 0 0 1 162.312 17)" fill="#F8F8F8"/>
<circle cx="0.5" cy="0.5" r="0.5" transform="matrix(-1 0 0 1 142.312 17)" fill="#F8F8F8"/>
<circle cx="0.5" cy="0.5" r="0.5" transform="matrix(-1 0 0 1 122.312 17)" fill="#F8F8F8"/>
<circle cx="0.5" cy="0.5" r="0.5" transform="matrix(-1 0 0 1 102.312 17)" fill="#F8F8F8"/>
<circle cx="0.5" cy="0.5" r="0.5" transform="matrix(-1 0 0 1 82.312 17)" fill="#F8F8F8"/>
<circle opacity="0.3" cx="1.5248" cy="1.5248" r="1.5248" transform="matrix(-1 0 0 1 383.312 36)" fill="#F8F8F8"/>
<circle opacity="0.4" cx="1.4456" cy="1.4456" r="1.4456" transform="matrix(-1 0 0 1 362.812 36.5)" fill="#F8F8F8"/>
<circle opacity="0.4" cx="1.1486" cy="1.1486" r="1.1486" transform="matrix(-1 0 0 1 322.812 36.5)" fill="#F8F8F8"/>
<circle cx="0.9902" cy="0.9902" r="0.9902" transform="matrix(-1 0 0 1 302.312 37)" fill="#F8F8F8"/>
<circle cx="0.812" cy="0.812" r="0.812" transform="matrix(-1 0 0 1 282.312 37)" fill="#F8F8F8"/>
<circle cx="0.6338" cy="0.6338" r="0.6338" transform="matrix(-1 0 0 1 262.312 37)" fill="#F8F8F8"/>
<circle cx="0.5" cy="0.5" r="0.5" transform="matrix(-1 0 0 1 242.312 37)" fill="#F8F8F8"/>
<circle cx="0.5" cy="0.5" r="0.5" transform="matrix(-1 0 0 1 222.312 37)" fill="#F8F8F8"/>
<circle cx="0.5" cy="0.5" r="0.5" transform="matrix(-1 0 0 1 202.312 37)" fill="#F8F8F8"/>
<circle cx="0.5" cy="0.5" r="0.5" transform="matrix(-1 0 0 1 182.312 37)" fill="#F8F8F8"/>
<circle cx="0.5" cy="0.5" r="0.5" transform="matrix(-1 0 0 1 162.312 37)" fill="#F8F8F8"/>
<circle cx="0.5" cy="0.5" r="0.5" transform="matrix(-1 0 0 1 142.312 37)" fill="#F8F8F8"/>
<circle cx="0.5" cy="0.5" r="0.5" transform="matrix(-1 0 0 1 122.312 37)" fill="#F8F8F8"/>
<circle cx="0.5" cy="0.5" r="0.5" transform="matrix(-1 0 0 1 102.312 37)" fill="#F8F8F8"/>
<circle cx="0.5" cy="0.5" r="0.5" transform="matrix(-1 0 0 1 82.312 37)" fill="#F8F8F8"/>
<circle opacity="0.3" cx="1.4654" cy="1.4654" r="1.4654" transform="matrix(-1 0 0 1 382.812 56.5)" fill="#F8F8F8"/>
<circle opacity="0.4" cx="1.3466" cy="1.3466" r="1.3466" transform="matrix(-1 0 0 1 362.812 56.5)" fill="#F8F8F8"/>
<circle opacity="0.4" cx="1.0298" cy="1.0298" r="1.0298" transform="matrix(-1 0 0 1 322.812 56.5)" fill="#F8F8F8"/>
<circle cx="0.8912" cy="0.8912" r="0.8912" transform="matrix(-1 0 0 1 302.312 57)" fill="#F8F8F8"/>
<circle cx="0.7328" cy="0.7328" r="0.7328" transform="matrix(-1 0 0 1 282.312 57)" fill="#F8F8F8"/>
<circle cx="0.5546" cy="0.5546" r="0.5546" transform="matrix(-1 0 0 1 262.312 57)" fill="#F8F8F8"/>
<circle cx="0.5" cy="0.5" r="0.5" transform="matrix(-1 0 0 1 242.312 57)" fill="#F8F8F8"/>
<circle cx="0.5" cy="0.5" r="0.5" transform="matrix(-1 0 0 1 222.312 57)" fill="#F8F8F8"/>
<circle cx="0.5" cy="0.5" r="0.5" transform="matrix(-1 0 0 1 202.312 57)" fill="#F8F8F8"/>
<circle cx="0.5" cy="0.5" r="0.5" transform="matrix(-1 0 0 1 182.312 57)" fill="#F8F8F8"/>
<circle cx="0.5" cy="0.5" r="0.5" transform="matrix(-1 0 0 1 162.312 57)" fill="#F8F8F8"/>
<circle cx="0.5" cy="0.5" r="0.5" transform="matrix(-1 0 0 1 142.312 57)" fill="#F8F8F8"/>
<circle cx="0.5" cy="0.5" r="0.5" transform="matrix(-1 0 0 1 102.312 57)" fill="#F8F8F8"/>
<circle cx="0.5" cy="0.5" r="0.5" transform="matrix(-1 0 0 1 82.312 57)" fill="#F8F8F8"/>
<circle cx="1.4654" cy="1.4654" r="1.4654" transform="matrix(-1 0 0 1 402.812 76.5)" fill="#F8F8F8"/>
<circle opacity="0.3" cx="1.3664" cy="1.3664" r="1.3664" transform="matrix(-1 0 0 1 382.812 76.5)" fill="#F8F8F8"/>
<circle opacity="0.4" cx="1.2476" cy="1.2476" r="1.2476" transform="matrix(-1 0 0 1 362.812 76.5)" fill="#F8F8F8"/>
<circle opacity="0.4" cx="1.109" cy="1.109" r="1.109" transform="matrix(-1 0 0 1 342.812 76.5)" fill="#F8F8F8"/>
<circle opacity="0.4" cx="0.9704" cy="0.9704" r="0.9704" transform="matrix(-1 0 0 1 322.312 77)" fill="#F8F8F8"/>
<circle cx="0.8318" cy="0.8318" r="0.8318" transform="matrix(-1 0 0 1 302.312 77)" fill="#F8F8F8"/>
<circle cx="0.6734" cy="0.6734" r="0.6734" transform="matrix(-1 0 0 1 282.312 77)" fill="#F8F8F8"/>
<circle cx="0.5546" cy="0.5546" r="0.5546" transform="matrix(-1 0 0 1 262.312 77)" fill="#F8F8F8"/>
<circle cx="0.5" cy="0.5" r="0.5" transform="matrix(-1 0 0 1 242.312 77)" fill="#F8F8F8"/>
<circle cx="0.5" cy="0.5" r="0.5" transform="matrix(-1 0 0 1 222.312 77)" fill="#F8F8F8"/>
<circle cx="0.5" cy="0.5" r="0.5" transform="matrix(-1 0 0 1 202.312 77)" fill="#F8F8F8"/>
<circle cx="0.5" cy="0.5" r="0.5" transform="matrix(-1 0 0 1 182.312 77)" fill="#F8F8F8"/>
<circle cx="0.5" cy="0.5" r="0.5" transform="matrix(-1 0 0 1 162.312 77)" fill="#F8F8F8"/>
<circle cx="0.5" cy="0.5" r="0.5" transform="matrix(-1 0 0 1 142.312 77)" fill="#F8F8F8"/>
<circle cx="0.5" cy="0.5" r="0.5" transform="matrix(-1 0 0 1 122.312 77)" fill="#F8F8F8"/>
<circle cx="0.5" cy="0.5" r="0.5" transform="matrix(-1 0 0 1 102.312 77)" fill="#F8F8F8"/>
<circle cx="0.5" cy="0.5" r="0.5" transform="matrix(-1 0 0 1 82.312 77)" fill="#F8F8F8"/>
<circle cx="1.2674" cy="1.2674" r="1.2674" transform="matrix(-1 0 0 1 382.812 96.5)" fill="#F8F8F8"/>
<circle cx="1.1684" cy="1.1684" r="1.1684" transform="matrix(-1 0 0 1 362.812 96.5)" fill="#F8F8F8"/>
<circle cx="1.0496" cy="1.0496" r="1.0496" transform="matrix(-1 0 0 1 342.812 96.5)" fill="#F8F8F8"/>
<circle cx="0.911" cy="0.911" r="0.911" transform="matrix(-1 0 0 1 322.312 97)" fill="#F8F8F8"/>
<circle cx="0.812" cy="0.812" r="0.812" transform="matrix(-1 0 0 1 302.312 97)" fill="#F8F8F8"/>
<circle cx="0.6734" cy="0.6734" r="0.6734" transform="matrix(-1 0 0 1 282.312 97)" fill="#F8F8F8"/>
<circle cx="0.5744" cy="0.5744" r="0.5744" transform="matrix(-1 0 0 1 262.312 97)" fill="#F8F8F8"/>
<circle cx="0.515" cy="0.515" r="0.515" transform="matrix(-1 0 0 1 242.312 97)" fill="#F8F8F8"/>
<circle cx="0.5" cy="0.5" r="0.5" transform="matrix(-1 0 0 1 222.312 97)" fill="#F8F8F8"/>
<circle cx="0.5" cy="0.5" r="0.5" transform="matrix(-1 0 0 1 202.312 97)" fill="#F8F8F8"/>
<circle cx="0.5" cy="0.5" r="0.5" transform="matrix(-1 0 0 1 182.312 97)" fill="#F8F8F8"/>
<circle cx="0.5" cy="0.5" r="0.5" transform="matrix(-1 0 0 1 162.312 97)" fill="#F8F8F8"/>
<circle cx="0.5" cy="0.5" r="0.5" transform="matrix(-1 0 0 1 142.312 97)" fill="#F8F8F8"/>
<circle cx="0.5" cy="0.5" r="0.5" transform="matrix(-1 0 0 1 122.312 97)" fill="#F8F8F8"/>
<circle cx="0.5" cy="0.5" r="0.5" transform="matrix(-1 0 0 1 102.312 97)" fill="#F8F8F8"/>
<circle cx="0.5" cy="0.5" r="0.5" transform="matrix(-1 0 0 1 82.312 97)" fill="#F8F8F8"/>
<circle cx="1.0892" cy="1.0892" r="1.0892" transform="matrix(-1 0 0 1 362.812 116.5)" fill="#F8F8F8"/>
<circle cx="0.9902" cy="0.9902" r="0.9902" transform="matrix(-1 0 0 1 342.312 117)" fill="#F8F8F8"/>
<circle cx="0.5" cy="0.5" r="0.5" transform="matrix(-1 0 0 1 122.312 117)" fill="#F8F8F8"/>
<circle cx="0.5" cy="0.5" r="0.5" transform="matrix(-1 0 0 1 102.312 117)" fill="#F8F8F8"/>
<circle cx="0.5" cy="0.5" r="0.5" transform="matrix(-1 0 0 1 82.312 117)" fill="#F8F8F8"/>
<circle cx="1.0892" cy="1.0892" r="1.0892" transform="matrix(-1 0 0 1 382.812 136.5)" fill="#F8F8F8"/>
<circle cx="1.0298" cy="1.0298" r="1.0298" transform="matrix(-1 0 0 1 362.812 136.5)" fill="#F8F8F8"/>
<circle cx="0.9506" cy="0.9506" r="0.9506" transform="matrix(-1 0 0 1 342.312 137)" fill="#F8F8F8"/>
<circle cx="0.5546" cy="0.5546" r="0.5546" transform="matrix(-1 0 0 1 122.312 137)" fill="#F8F8F8"/>
<circle cx="0.5" cy="0.5" r="0.5" transform="matrix(-1 0 0 1 102.312 137)" fill="#F8F8F8"/>
<circle cx="0.5" cy="0.5" r="0.5" transform="matrix(-1 0 0 1 82.312 137)" fill="#F8F8F8"/>
<circle cx="1.0298" cy="1.0298" r="1.0298" transform="matrix(-1 0 0 1 382.812 156.5)" fill="#F8F8F8"/>
<circle cx="0.9902" cy="0.9902" r="0.9902" transform="matrix(-1 0 0 1 362.312 157)" fill="#F8F8F8"/>
<circle cx="0.9506" cy="0.9506" r="0.9506" transform="matrix(-1 0 0 1 342.312 157)" fill="#F8F8F8"/>
<circle cx="0.713" cy="0.713" r="0.713" transform="matrix(-1 0 0 1 122.312 157)" fill="#F8F8F8"/>
<circle cx="0.6338" cy="0.6338" r="0.6338" transform="matrix(-1 0 0 1 102.312 157)" fill="#F8F8F8"/>
<circle cx="0.5744" cy="0.5744" r="0.5744" transform="matrix(-1 0 0 1 82.312 157)" fill="#F8F8F8"/>
<circle cx="0.9704" cy="0.9704" r="0.9704" transform="matrix(-1 0 0 1 382.312 177)" fill="#F8F8F8"/>
<circle cx="0.9506" cy="0.9506" r="0.9506" transform="matrix(-1 0 0 1 362.312 177)" fill="#F8F8F8"/>
<circle cx="0.9506" cy="0.9506" r="0.9506" transform="matrix(-1 0 0 1 342.312 177)" fill="#F8F8F8"/>
<circle cx="0.8714" cy="0.8714" r="0.8714" transform="matrix(-1 0 0 1 122.312 177)" fill="#F8F8F8"/>
<circle cx="0.7922" cy="0.7922" r="0.7922" transform="matrix(-1 0 0 1 102.312 177)" fill="#F8F8F8"/>
<circle cx="0.6932" cy="0.6932" r="0.6932" transform="matrix(-1 0 0 1 82.312 177)" fill="#F8F8F8"/>
<circle cx="0.9506" cy="0.9506" r="0.9506" transform="matrix(-1 0 0 1 382.312 197)" fill="#F8F8F8"/>
<circle cx="0.9506" cy="0.9506" r="0.9506" transform="matrix(-1 0 0 1 362.312 197)" fill="#F8F8F8"/>
<circle cx="0.9704" cy="0.9704" r="0.9704" transform="matrix(-1 0 0 1 342.312 197)" fill="#F8F8F8"/>
<circle cx="1.01" cy="1.01" r="1.01" transform="matrix(-1 0 0 1 122.812 196.5)" fill="#F8F8F8"/>
<circle cx="0.911" cy="0.911" r="0.911" transform="matrix(-1 0 0 1 102.312 197)" fill="#F8F8F8"/>
<circle cx="0.812" cy="0.812" r="0.812" transform="matrix(-1 0 0 1 82.312 197)" fill="#F8F8F8"/>
<circle cx="0.911" cy="0.911" r="0.911" transform="matrix(-1 0 0 1 382.312 217)" fill="#F8F8F8"/>
<circle cx="0.9506" cy="0.9506" r="0.9506" transform="matrix(-1 0 0 1 362.312 217)" fill="#F8F8F8"/>
<circle cx="0.9902" cy="0.9902" r="0.9902" transform="matrix(-1 0 0 1 342.312 217)" fill="#F8F8F8"/>
<circle cx="1.0892" cy="1.0892" r="1.0892" transform="matrix(-1 0 0 1 122.812 216.5)" fill="#F8F8F8"/>
<circle cx="1.01" cy="1.01" r="1.01" transform="matrix(-1 0 0 1 102.812 216.5)" fill="#F8F8F8"/>
<circle cx="0.911" cy="0.911" r="0.911" transform="matrix(-1 0 0 1 82.312 217)" fill="#F8F8F8"/>
<circle cx="0.911" cy="0.911" r="0.911" transform="matrix(-1 0 0 1 382.312 237)" fill="#F8F8F8"/>
<circle opacity="0.5" cx="0.9506" cy="0.9506" r="0.9506" transform="matrix(-1 0 0 1 362.312 237)" fill="#F8F8F8"/>
<circle opacity="0.5" cx="1.0298" cy="1.0298" r="1.0298" transform="matrix(-1 0 0 1 342.812 236.5)" fill="#F8F8F8"/>
<circle cx="1.109" cy="1.109" r="1.109" transform="matrix(-1 0 0 1 322.812 236.5)" fill="#F8F8F8"/>
<circle cx="1.1684" cy="1.1684" r="1.1684" transform="matrix(-1 0 0 1 302.812 236.5)" fill="#F8F8F8"/>
<circle cx="1.2278" cy="1.2278" r="1.2278" transform="matrix(-1 0 0 1 282.812 236.5)" fill="#F8F8F8"/>
<circle cx="1.307" cy="1.307" r="1.307" transform="matrix(-1 0 0 1 182.812 236.5)" fill="#F8F8F8"/>
<circle cx="1.2872" cy="1.2872" r="1.2872" transform="matrix(-1 0 0 1 162.812 236.5)" fill="#F8F8F8"/>
<circle cx="1.2476" cy="1.2476" r="1.2476" transform="matrix(-1 0 0 1 142.812 236.5)" fill="#F8F8F8"/>
<circle cx="1.208" cy="1.208" r="1.208" transform="matrix(-1 0 0 1 122.812 236.5)" fill="#F8F8F8"/>
<circle cx="1.109" cy="1.109" r="1.109" transform="matrix(-1 0 0 1 102.812 236.5)" fill="#F8F8F8"/>
<circle cx="1.01" cy="1.01" r="1.01" transform="matrix(-1 0 0 1 82.812 236.5)" fill="#F8F8F8"/>
<circle cx="0.8912" cy="0.8912" r="0.8912" transform="matrix(-1 0 0 1 382.312 257)" fill="#F8F8F8"/>
<circle opacity="0.5" cx="0.9704" cy="0.9704" r="0.9704" transform="matrix(-1 0 0 1 362.312 257)" fill="#F8F8F8"/>
<circle opacity="0.5" cx="1.0496" cy="1.0496" r="1.0496" transform="matrix(-1 0 0 1 342.812 256.5)" fill="#F8F8F8"/>
<circle cx="1.1486" cy="1.1486" r="1.1486" transform="matrix(-1 0 0 1 322.812 256.5)" fill="#F8F8F8"/>
<circle cx="1.2278" cy="1.2278" r="1.2278" transform="matrix(-1 0 0 1 302.812 256.5)" fill="#F8F8F8"/>
<circle cx="1.307" cy="1.307" r="1.307" transform="matrix(-1 0 0 1 282.812 256.5)" fill="#F8F8F8"/>
<circle cx="1.406" cy="1.406" r="1.406" transform="matrix(-1 0 0 1 182.812 256.5)" fill="#F8F8F8"/>
<circle cx="1.3862" cy="1.3862" r="1.3862" transform="matrix(-1 0 0 1 162.812 256.5)" fill="#F8F8F8"/>
<circle cx="1.3466" cy="1.3466" r="1.3466" transform="matrix(-1 0 0 1 142.812 256.5)" fill="#F8F8F8"/>
<circle cx="1.2872" cy="1.2872" r="1.2872" transform="matrix(-1 0 0 1 122.812 256.5)" fill="#F8F8F8"/>
<circle cx="1.0892" cy="1.0892" r="1.0892" transform="matrix(-1 0 0 1 82.812 256.5)" fill="#F8F8F8"/>
<circle opacity="0.5" cx="0.911" cy="0.911" r="0.911" transform="matrix(-1 0 0 1 382.312 277)" fill="#F8F8F8"/>
<circle opacity="0.5" cx="0.9902" cy="0.9902" r="0.9902" transform="matrix(-1 0 0 1 362.312 277)" fill="#F8F8F8"/>
<circle opacity="0.5" cx="1.0892" cy="1.0892" r="1.0892" transform="matrix(-1 0 0 1 342.812 276.5)" fill="#F8F8F8"/>
<circle cx="1.1882" cy="1.1882" r="1.1882" transform="matrix(-1 0 0 1 322.812 276.5)" fill="#F8F8F8"/>
<circle cx="1.2674" cy="1.2674" r="1.2674" transform="matrix(-1 0 0 1 302.812 276.5)" fill="#F8F8F8"/>
<circle cx="1.3466" cy="1.3466" r="1.3466" transform="matrix(-1 0 0 1 282.812 276.5)" fill="#F8F8F8"/>
<circle cx="1.4654" cy="1.4654" r="1.4654" transform="matrix(-1 0 0 1 182.812 276.5)" fill="#F8F8F8"/>
<circle cx="1.4456" cy="1.4456" r="1.4456" transform="matrix(-1 0 0 1 162.812 276.5)" fill="#F8F8F8"/>
<circle opacity="0.3" cx="1.406" cy="1.406" r="1.406" transform="matrix(-1 0 0 1 142.812 276.5)" fill="#F8F8F8"/>
<circle opacity="0.3" cx="1.3664" cy="1.3664" r="1.3664" transform="matrix(-1 0 0 1 122.812 276.5)" fill="#F8F8F8"/>
<circle opacity="0.3" cx="1.2872" cy="1.2872" r="1.2872" transform="matrix(-1 0 0 1 102.812 276.5)" fill="#F8F8F8"/>
<circle cx="1.1684" cy="1.1684" r="1.1684" transform="matrix(-1 0 0 1 82.812 276.5)" fill="#F8F8F8"/>
<circle opacity="0.5" cx="0.9308" cy="0.9308" r="0.9308" transform="matrix(-1 0 0 1 382.312 297)" fill="#F8F8F8"/>
<circle opacity="0.5" cx="1.01" cy="1.01" r="1.01" transform="matrix(-1 0 0 1 362.812 296.5)" fill="#F8F8F8"/>
<circle opacity="0.5" cx="1.109" cy="1.109" r="1.109" transform="matrix(-1 0 0 1 342.812 296.5)" fill="#F8F8F8"/>
<circle cx="1.2872" cy="1.2872" r="1.2872" transform="matrix(-1 0 0 1 302.812 296.5)" fill="#F8F8F8"/>
<circle opacity="0.3" cx="1.3664" cy="1.3664" r="1.3664" transform="matrix(-1 0 0 1 282.812 296.5)" fill="#F8F8F8"/>
<circle opacity="0.3" cx="1.4258" cy="1.4258" r="1.4258" transform="matrix(-1 0 0 1 262.812 296.5)" fill="#F8F8F8"/>
<circle opacity="0.3" cx="1.4654" cy="1.4654" r="1.4654" transform="matrix(-1 0 0 1 242.812 296.5)" fill="#F8F8F8"/>
<circle opacity="0.3" cx="1.4852" cy="1.4852" r="1.4852" transform="matrix(-1 0 0 1 222.812 296.5)" fill="#F8F8F8"/>
<circle opacity="0.3" cx="1.505" cy="1.505" r="1.505" transform="matrix(-1 0 0 1 203.312 296)" fill="#F8F8F8"/>
<circle opacity="0.3" cx="1.505" cy="1.505" r="1.505" transform="matrix(-1 0 0 1 183.312 296)" fill="#F8F8F8"/>
<circle cx="1.4852" cy="1.4852" r="1.4852" transform="matrix(-1 0 0 1 162.812 296.5)" fill="#F8F8F8"/>
<circle opacity="0.3" cx="1.4654" cy="1.4654" r="1.4654" transform="matrix(-1 0 0 1 142.812 296.5)" fill="#F8F8F8"/>
<circle opacity="0.3" cx="1.4258" cy="1.4258" r="1.4258" transform="matrix(-1 0 0 1 122.812 296.5)" fill="#F8F8F8"/>
<circle opacity="0.3" cx="1.3466" cy="1.3466" r="1.3466" transform="matrix(-1 0 0 1 102.812 296.5)" fill="#F8F8F8"/>
<circle cx="1.2476" cy="1.2476" r="1.2476" transform="matrix(-1 0 0 1 82.812 296.5)" fill="#F8F8F8"/>
<circle cx="1.2278" cy="1.2278" r="1.2278" transform="matrix(-1 0 0 1 322.812 16.5)" fill="#F8F8F8"/>
<circle opacity="0.4" cx="1.307" cy="1.307" r="1.307" transform="matrix(-1 0 0 1 342.812 36.5)" fill="#F8F8F8"/>
<circle opacity="0.4" cx="1.208" cy="1.208" r="1.208" transform="matrix(-1 0 0 1 342.812 56.5)" fill="#F8F8F8"/>
<circle cx="0.5" cy="0.5" r="0.5" transform="matrix(-1 0 0 1 122.312 57)" fill="#F8F8F8"/>
<circle cx="1.1882" cy="1.1882" r="1.1882" transform="matrix(-1 0 0 1 382.812 116.5)" fill="#F8F8F8"/>
<circle cx="1.208" cy="1.208" r="1.208" transform="matrix(-1 0 0 1 102.812 256.5)" fill="#F8F8F8"/>
<circle cx="1.208" cy="1.208" r="1.208" transform="matrix(-1 0 0 1 322.812 296.5)" fill="#F8F8F8"/>
<circle opacity="0.5" cx="0.9902" cy="0.9902" r="0.9902" transform="matrix(-1 0 0 1 382.312 317)" fill="#F8F8F8"/>
<circle opacity="0.5" cx="1.0298" cy="1.0298" r="1.0298" transform="matrix(-1 0 0 1 362.812 316.5)" fill="#F8F8F8"/>
<circle opacity="0.5" cx="1.1288" cy="1.1288" r="1.1288" transform="matrix(-1 0 0 1 342.812 316.5)" fill="#F8F8F8"/>
<circle cx="1.208" cy="1.208" r="1.208" transform="matrix(-1 0 0 1 322.812 316.5)" fill="#F8F8F8"/>
<circle cx="1.2872" cy="1.2872" r="1.2872" transform="matrix(-1 0 0 1 302.812 316.5)" fill="#F8F8F8"/>
<circle opacity="0.3" cx="1.3664" cy="1.3664" r="1.3664" transform="matrix(-1 0 0 1 282.812 316.5)" fill="#F8F8F8"/>
<circle opacity="0.3" cx="1.4258" cy="1.4258" r="1.4258" transform="matrix(-1 0 0 1 262.812 316.5)" fill="#F8F8F8"/>
<circle opacity="0.3" cx="1.4654" cy="1.4654" r="1.4654" transform="matrix(-1 0 0 1 242.812 316.5)" fill="#F8F8F8"/>
<circle opacity="0.3" cx="1.4852" cy="1.4852" r="1.4852" transform="matrix(-1 0 0 1 222.812 316.5)" fill="#F8F8F8"/>
<circle opacity="0.3" cx="1.505" cy="1.505" r="1.505" transform="matrix(-1 0 0 1 203.312 316)" fill="#F8F8F8"/>
<circle opacity="0.3" cx="1.505" cy="1.505" r="1.505" transform="matrix(-1 0 0 1 183.312 316)" fill="#F8F8F8"/>
<circle cx="1.505" cy="1.505" r="1.505" transform="matrix(-1 0 0 1 163.312 316)" fill="#F8F8F8"/>
<circle cx="1.505" cy="1.505" r="1.505" transform="matrix(-1 0 0 1 143.312 316)" fill="#F8F8F8"/>
<circle cx="1.4654" cy="1.4654" r="1.4654" transform="matrix(-1 0 0 1 122.812 316.5)" fill="#F8F8F8"/>
<circle cx="1.406" cy="1.406" r="1.406" transform="matrix(-1 0 0 1 102.812 316.5)" fill="#F8F8F8"/>
<circle cx="1.307" cy="1.307" r="1.307" transform="matrix(-1 0 0 1 82.812 316.5)" fill="#F8F8F8"/>
</g>
</g>
</g>
<mask id="mask1_19022_67563" style="mask-type:alpha" maskUnits="userSpaceOnUse" x="105" y="40" width="256" height="256">
<circle cx="233" cy="168" r="128" fill="url(#paint1_radial_19022_67563)"/>
</mask>
<g mask="url(#mask1_19022_67563)">
<circle cx="233" cy="168" r="143.25" fill="url(#paint2_radial_19022_67563)" fill-opacity="0.15" stroke="url(#paint3_linear_19022_67563)" stroke-width="1.5"/>
</g>
<foreignObject x="40" y="-24" width="384" height="384"><div xmlns="http://www.w3.org/1999/xhtml" style="backdrop-filter:blur(50px);clip-path:url(#bgblur_1_19022_67563_clip_path);height:100%;width:100%"></div></foreignObject><g filter="url(#filter0_d_19022_67563)" data-figma-bg-blur-radius="100">
<circle cx="232" cy="168" r="92" fill="url(#paint4_linear_19022_67563)" fill-opacity="0.9" shape-rendering="crispEdges"/>
<circle cx="232" cy="168" r="91.25" stroke="url(#paint5_linear_19022_67563)" stroke-width="1.5" shape-rendering="crispEdges"/>
</g>
<circle cx="232" cy="168" r="91.25" stroke="url(#paint6_linear_19022_67563)" stroke-opacity="0.25" stroke-width="1.5"/>
<path d="M232 78C232 76.8954 232.896 75.9977 234 76.0217C249.406 76.3567 264.494 80.5569 277.87 88.2508C291.825 96.2774 303.429 107.825 311.524 121.741C319.619 135.656 323.92 151.452 323.999 167.55C324.078 183.649 319.931 199.486 311.972 213.48C304.014 227.474 292.523 239.134 278.647 247.297C264.772 255.46 248.997 259.838 232.899 259.996C216.801 260.153 200.944 256.083 186.911 248.194C173.46 240.631 162.137 229.812 153.973 216.742C153.388 215.805 153.701 214.577 154.651 214.012L172.194 203.576C173.143 203.011 174.368 203.325 174.961 204.257C180.936 213.658 189.149 221.445 198.876 226.914C209.185 232.71 220.834 235.7 232.661 235.584C244.487 235.469 256.076 232.252 266.269 226.255C276.463 220.259 284.905 211.692 290.751 201.412C296.598 191.131 299.644 179.496 299.587 167.67C299.529 155.843 296.369 144.239 290.422 134.016C284.475 123.793 275.95 115.309 265.698 109.413C256.025 103.849 245.134 100.772 234 100.442C232.896 100.41 232 99.5172 232 98.4126L232 78Z" fill="#F8F8F8" fill-opacity="0.05"/>
<circle cx="232" cy="168" r="80" stroke="#F8F8F8" stroke-opacity="0.1" stroke-width="24" stroke-dasharray="2 48"/>
<foreignObject x="157" y="92" width="152" height="152"><div xmlns="http://www.w3.org/1999/xhtml" style="backdrop-filter:blur(16px);clip-path:url(#bgblur_3_19022_67563_clip_path);height:100%;width:100%"></div></foreignObject><g filter="url(#filter1_i_19022_67563)" data-figma-bg-blur-radius="32">
<g clip-path="url(#clip2_19022_67563)">
<rect x="193" y="128" width="80" height="80" rx="40" fill="#F8F8F8" fill-opacity="0.05"/>
<rect x="193" y="128" width="80" height="80" rx="40" fill="url(#paint7_linear_19022_67563)" fill-opacity="0.5"/>
<circle cx="233" cy="168" r="39.25" stroke="url(#paint8_linear_19022_67563)" stroke-opacity="0.25" stroke-width="1.5"/>
<path d="M250.944 162.783H234.179L236.159 145.159C236.212 144.69 235.939 144.243 235.493 144.072C235.047 143.899 234.541 144.047 234.258 144.429L214.203 171.559C213.969 171.876 213.935 172.296 214.114 172.646C214.295 172.998 214.659 173.218 215.056 173.218H231.821L229.841 190.842C229.788 191.311 230.061 191.758 230.507 191.929C230.631 191.977 230.76 192 230.889 192C231.218 192 231.538 191.848 231.742 191.572L251.797 164.442C252.031 164.125 252.065 163.705 251.886 163.355C251.705 163.003 251.341 162.783 250.944 162.783Z" fill="url(#paint9_linear_19022_67563)"/>
</g>
<rect x="191" y="126" width="84" height="84" rx="42" stroke="url(#paint10_linear_19022_67563)" stroke-width="4"/>
</g>
<g filter="url(#filter2_i_19022_67563)">
<path d="M326 162H330C332.209 162 334 163.791 334 166V170C334 172.209 332.209 174 330 174H326V162Z" fill="url(#paint11_linear_19022_67563)"/>
</g>
<circle cx="62" cy="80" r="1" fill="#F8F8F8"/>
<circle opacity="0.2" cx="361.5" cy="237.5" r="1.5" fill="#F8F8F8"/>
<circle cx="327.5" cy="65.5" r="0.5" fill="#F8F8F8"/>
<circle cx="122.5" cy="99.5" r="0.5" fill="#F8F8F8"/>
<circle cx="381.5" cy="117.5" r="0.5" fill="#F8F8F8"/>
<circle opacity="0.5" cx="101.5" cy="197.5" r="1.5" fill="#F8F8F8"/>
<path opacity="0.2" d="M388 148L384 148" stroke="#F8F8F8" stroke-width="1.5" stroke-linecap="round"/>
<path opacity="0.8" d="M356 168L348 168" stroke="#F8F8F8" stroke-width="1.5" stroke-linecap="round"/>
<path opacity="0.25" d="M472 148L380.32 148C377.984 148 375.765 149.021 374.246 150.794L361.895 165.206C360.375 166.979 358.156 168 355.82 168L334 168" stroke="url(#paint12_linear_19022_67563)" stroke-width="1.5"/>
<path opacity="0.2" d="M84 188L88 188" stroke="#F8F8F8" stroke-width="1.5" stroke-linecap="round"/>
<path opacity="0.8" d="M116 168L124 168" stroke="#F8F8F8" stroke-width="1.5" stroke-linecap="round"/>
<path opacity="0.25" d="M0 188L91.68 188C94.0156 188 96.2346 186.979 97.7545 185.206L110.105 170.794C111.625 169.021 113.844 168 116.18 168L138 168" stroke="url(#paint13_linear_19022_67563)" stroke-width="1.5"/>
<defs>
<filter id="filter0_d_19022_67563" x="40" y="-24" width="384" height="384" filterUnits="userSpaceOnUse" color-interpolation-filters="sRGB">
<feFlood flood-opacity="0" result="BackgroundImageFix"/>
<feColorMatrix in="SourceAlpha" type="matrix" values="0 0 0 0 0 0 0 0 0 0 0 0 0 0 0 0 0 0 127 0" result="hardAlpha"/>
<feMorphology radius="2" operator="dilate" in="SourceAlpha" result="effect1_dropShadow_19022_67563"/>
<feOffset/>
<feComposite in2="hardAlpha" operator="out"/>
<feColorMatrix type="matrix" values="0 0 0 0 0 0 0 0 0 0 0 0 0 0 0 0 0 0 0.25 0"/>
<feBlend mode="normal" in2="BackgroundImageFix" result="effect1_dropShadow_19022_67563"/>
<feBlend mode="normal" in="SourceGraphic" in2="effect1_dropShadow_19022_67563" result="shape"/>
</filter>
<clipPath id="bgblur_1_19022_67563_clip_path" transform="translate(-40 24)"><circle cx="232" cy="168" r="92"/>
</clipPath><filter id="filter1_i_19022_67563" x="157" y="92" width="152" height="152" filterUnits="userSpaceOnUse" color-interpolation-filters="sRGB">
<feFlood flood-opacity="0" result="BackgroundImageFix"/>
<feBlend mode="normal" in="SourceGraphic" in2="BackgroundImageFix" result="shape"/>
<feColorMatrix in="SourceAlpha" type="matrix" values="0 0 0 0 0 0 0 0 0 0 0 0 0 0 0 0 0 0 127 0" result="hardAlpha"/>
<feOffset/>
<feGaussianBlur stdDeviation="4"/>
<feComposite in2="hardAlpha" operator="arithmetic" k2="-1" k3="1"/>
<feColorMatrix type="matrix" values="0 0 0 0 1 0 0 0 0 1 0 0 0 0 1 0 0 0 1 0"/>
<feBlend mode="multiply" in2="shape" result="effect1_innerShadow_19022_67563"/>
</filter>
<clipPath id="bgblur_3_19022_67563_clip_path" transform="translate(-157 -92)"><rect x="193" y="128" width="80" height="80" rx="40"/>
</clipPath><filter id="filter2_i_19022_67563" x="326" y="162" width="12" height="12" filterUnits="userSpaceOnUse" color-interpolation-filters="sRGB">
<feFlood flood-opacity="0" result="BackgroundImageFix"/>
<feBlend mode="normal" in="SourceGraphic" in2="BackgroundImageFix" result="shape"/>
<feColorMatrix in="SourceAlpha" type="matrix" values="0 0 0 0 0 0 0 0 0 0 0 0 0 0 0 0 0 0 127 0" result="hardAlpha"/>
<feOffset dx="4"/>
<feGaussianBlur stdDeviation="2.1"/>
<feComposite in2="hardAlpha" operator="arithmetic" k2="-1" k3="1"/>
<feColorMatrix type="matrix" values="0 0 0 0 0.0705882 0 0 0 0 0.0705882 0 0 0 0 0.0705882 0 0 0 0.3 0"/>
<feBlend mode="normal" in2="shape" result="effect1_innerShadow_19022_67563"/>
</filter>
<radialGradient id="paint0_radial_19022_67563" cx="0" cy="0" r="1" gradientUnits="userSpaceOnUse" gradientTransform="translate(232 168) rotate(90) scale(184)">
<stop offset="0.608696" stop-color="white" stop-opacity="0"/>
<stop offset="1" stop-color="white"/>
</radialGradient>
<radialGradient id="paint1_radial_19022_67563" cx="0" cy="0" r="1" gradientUnits="userSpaceOnUse" gradientTransform="translate(233 168) rotate(90.9687) scale(329.19)">
<stop stop-color="#F8F8F8"/>
<stop offset="0.362052" stop-color="#F8F8F8" stop-opacity="0"/>
</radialGradient>
<radialGradient id="paint2_radial_19022_67563" cx="0" cy="0" r="1" gradientUnits="userSpaceOnUse" gradientTransform="translate(233 178.286) rotate(90) scale(427.538)">
<stop stop-color="#F8F8F8" stop-opacity="0.4"/>
<stop offset="1" stop-color="#F8F8F8" stop-opacity="0"/>
</radialGradient>
<linearGradient id="paint3_linear_19022_67563" x1="233" y1="24" x2="233" y2="446.471" gradientUnits="userSpaceOnUse">
<stop stop-color="#F8F8F8" stop-opacity="0"/>
<stop offset="1" stop-color="#F8F8F8" stop-opacity="0.05"/>
</linearGradient>
<linearGradient id="paint4_linear_19022_67563" x1="232" y1="76" x2="232" y2="447.721" gradientUnits="userSpaceOnUse">
<stop stop-color="#121212" stop-opacity="0.6"/>
<stop offset="0.473887" stop-color="#121212" stop-opacity="0"/>
</linearGradient>
<linearGradient id="paint5_linear_19022_67563" x1="232" y1="76" x2="232" y2="345.912" gradientUnits="userSpaceOnUse">
<stop stop-color="#F8F8F8" stop-opacity="0"/>
<stop offset="1" stop-color="#F8F8F8" stop-opacity="0.05"/>
</linearGradient>
<linearGradient id="paint6_linear_19022_67563" x1="232" y1="76" x2="312.044" y2="278.054" gradientUnits="userSpaceOnUse">
<stop stop-color="white" stop-opacity="0.4"/>
<stop offset="0.4" stop-color="white" stop-opacity="0.01"/>
<stop offset="0.6" stop-color="white" stop-opacity="0.01"/>
<stop offset="1" stop-color="white" stop-opacity="0.1"/>
</linearGradient>
<linearGradient id="paint7_linear_19022_67563" x1="189" y1="128" x2="273" y2="215" gradientUnits="userSpaceOnUse">
<stop stop-color="white" stop-opacity="0"/>
<stop offset="0.501465" stop-color="white" stop-opacity="0.2"/>
</linearGradient>
<linearGradient id="paint8_linear_19022_67563" x1="233" y1="128" x2="267.802" y2="215.85" gradientUnits="userSpaceOnUse">
<stop stop-color="white" stop-opacity="0.4"/>
<stop offset="0.4" stop-color="white" stop-opacity="0.01"/>
<stop offset="0.6" stop-color="white" stop-opacity="0.01"/>
<stop offset="1" stop-color="white" stop-opacity="0.1"/>
</linearGradient>
<linearGradient id="paint9_linear_19022_67563" x1="233" y1="144" x2="233" y2="192" gradientUnits="userSpaceOnUse">
<stop stop-color="#F8F8F8" stop-opacity="0.9"/>
<stop offset="1" stop-color="#F8F8F8" stop-opacity="0.3"/>
</linearGradient>
<linearGradient id="paint10_linear_19022_67563" x1="233" y1="128" x2="233" y2="231.5" gradientUnits="userSpaceOnUse">
<stop stop-color="#121212" stop-opacity="0.4"/>
<stop offset="1" stop-color="#121212" stop-opacity="0.1"/>
</linearGradient>
<linearGradient id="paint11_linear_19022_67563" x1="330" y1="162" x2="330" y2="174" gradientUnits="userSpaceOnUse">
<stop stop-color="#F8F8F8" stop-opacity="0.9"/>
<stop offset="1" stop-color="#F8F8F8" stop-opacity="0.3"/>
</linearGradient>
<linearGradient id="paint12_linear_19022_67563" x1="472" y1="173.641" x2="407.58" y2="243.522" gradientUnits="userSpaceOnUse">
<stop stop-color="#F8F8F8" stop-opacity="0"/>
<stop offset="0.275463" stop-color="#F8F8F8" stop-opacity="0.2"/>
<stop offset="1" stop-color="#F8F8F8" stop-opacity="0.8"/>
</linearGradient>
<linearGradient id="paint13_linear_19022_67563" x1="1.76714e-06" y1="162.359" x2="64.4201" y2="92.4779" gradientUnits="userSpaceOnUse">
<stop stop-color="#F8F8F8" stop-opacity="0"/>
<stop offset="0.275463" stop-color="#F8F8F8" stop-opacity="0.2"/>
<stop offset="1" stop-color="#F8F8F8" stop-opacity="0.8"/>
</linearGradient>
<clipPath id="clip0_19022_67563">
<rect width="336" height="336" fill="white" transform="translate(64)"/>
</clipPath>
<clipPath id="clip2_19022_67563">
<rect x="193" y="128" width="80" height="80" rx="40" fill="white"/>
</clipPath>
</defs>
</svg>
